<svg width="433" height="623" viewBox="0 0 433 623" fill="none" xmlns="http://www.w3.org/2000/svg">
    <rect width="433" height="623" />
    <g id="Group 1">
        <g id="D" filter="url(#filter0_d)">
            <path d="M32 578V29C55 29 172 51 213 93C253.166 134.146 315 225 371 398C415.8 536.4 275 575.667 199 578H32Z" fill="#001AFF" fill-opacity="0.26" shape-rendering="crispEdges" />
            <path d="M32 578V29C55 29 172 51 213 93C253.166 134.146 315 225 371 398C415.8 536.4 275 575.667 199 578H32Z" stroke="url(#paint0_linear)" stroke-width="57" shape-rendering="crispEdges" />
        </g>
        <g id="e" filter="url(#filter1_d)">
            <path d="M16.1096 303.653H258.782C295.817 301.348 355.559 275.987 298.253 192.989C226.621 89.2405 162.298 92.0071 141.832 92.0071C121.365 92.0071 35.4065 144.573 24.8809 177.772C14.3554 210.972 16.1096 287.054 16.1096 334.086L24.8809 419.851C35.1141 459.967 100.899 507 141.832 507C270.477 507 288.02 451.668 288.02 419.851" stroke="url(#paint1_linear)" stroke-width="32" stroke-linecap="round" shape-rendering="crispEdges" />
        </g>
    </g>
    <defs>
        <filter id="filter0_d" x="3.5" y="0.5" width="428.616" height="622" filterUnits="userSpaceOnUse" color-interpolation-filters="sRGB">
            <feFlood flood-opacity="0" result="BackgroundImageFix" />
            <feColorMatrix in="SourceAlpha" type="matrix" values="0 0 0 0 0 0 0 0 0 0 0 0 0 0 0 0 0 0 127 0" result="hardAlpha" />
            <feOffset dx="20" dy="12" />
            <feGaussianBlur stdDeviation="2" />
            <feComposite in2="hardAlpha" operator="out" />
            <feColorMatrix type="matrix" values="0 0 0 0 0 0 0 0 0 0 0 0 0 0 0 0 0 0 0.25 0" />
            <feBlend mode="normal" in2="BackgroundImageFix" result="effect1_dropShadow" />
            <feBlend mode="normal" in="SourceGraphic" in2="effect1_dropShadow" result="shape" />
        </filter>
        <filter id="filter1_d" x="0" y="75.9994" width="353.036" height="465.001" filterUnits="userSpaceOnUse" color-interpolation-filters="sRGB">
            <feFlood flood-opacity="0" result="BackgroundImageFix" />
            <feColorMatrix in="SourceAlpha" type="matrix" values="0 0 0 0 0 0 0 0 0 0 0 0 0 0 0 0 0 0 127 0" result="hardAlpha" />
            <feOffset dx="10" dy="13" />
            <feGaussianBlur stdDeviation="2.5" />
            <feComposite in2="hardAlpha" operator="out" />
            <feColorMatrix type="matrix" values="0 0 0 0 0 0 0 0 0 0 0 0 0 0 0 0 0 0 0.35 0" />
            <feBlend mode="normal" in2="BackgroundImageFix" result="effect1_dropShadow" />
            <feBlend mode="normal" in="SourceGraphic" in2="effect1_dropShadow" result="shape" />
        </filter>
        <linearGradient id="paint0_linear" x1="1149.33" y1="254.558" x2="1057.9" y2="900.337" gradientUnits="userSpaceOnUse">
            <stop stop-color="#00FFFF" stop-opacity="0.21" />
            <stop offset="0.4375" stop-color="#48578F" />
        </linearGradient>
        <linearGradient id="paint1_linear" x1="999.571" y1="262.504" x2="939.909" y2="753.194" gradientUnits="userSpaceOnUse">
            <stop stop-opacity="0.63" />
            <stop offset="0.411458" stop-opacity="0.75" />
            <stop offset="1" stop-color="#090909" />
        </linearGradient>
    </defs>
</svg>